<svg width="474" height="474" viewBox="0 0 474 474" fill="none" xmlns="http://www.w3.org/2000/svg">
<path d="M0 237C0 106.109 106.109 0 237 0C367.891 0 474 106.109 474 237C474 367.891 367.891 474 237 474C106.109 474 0 367.891 0 237Z" fill="black"/>
<path d="M302.8 330H260.8L165.7 186.3V330H123.7V120.3H165.7L260.8 264.3V120.3H302.8V330Z" fill="white"/>
<path d="M362.905 332.1C355.305 332.1 349.005 329.8 344.005 325.2C339.205 320.4 336.805 314.5 336.805 307.5C336.805 300.5 339.205 294.7 344.005 290.1C349.005 285.3 355.305 282.9 362.905 282.9C370.305 282.9 376.405 285.3 381.205 290.1C386.005 294.7 388.405 300.5 388.405 307.5C388.405 314.5 386.005 320.4 381.205 325.2C376.405 329.8 370.305 332.1 362.905 332.1Z" fill="#00FF99"/>
</svg>
